<?xml version="1.0" encoding="UTF-8"?>
<svg width="168px" height="19px" viewBox="0 0 168 19" version="1.1" xmlns="http://www.w3.org/2000/svg" xmlns:xlink="http://www.w3.org/1999/xlink">
    <title>Group</title>
    <g id="Page-1" stroke="none" stroke-width="1" fill="none" fill-rule="evenodd">
        <g id="Group" transform="translate(-13, -10)" fill-rule="nonzero">
            <path d="M177.142305,10 L16.0906166,10 C12.9999999,10 12.9999999,11.5466514 12.9999999,13.4545441 L12.9999999,25.5454405 C12.9999999,27.4533486 13.2872209,29 16.0906166,29 L178,29 C180.999988,29 180.999988,27.4533486 180.999988,25.5454405 L180.999988,13.4545441 C180.999988,11.5466514 180.654754,10 177.142305,10 Z" id="Path" fill="#000000"></path>
            <g transform="translate(17, 12)" id="Path">
                <polygon fill="#FFFFFF" points="7.0203 8.933 18.0702 8.933 18.0702 14.1189 0 14.1189 0 8.933 5.0796 8.933 12.0734 5.1859 0 5.1859 0 -1.77635684e-15 18.0702 -1.77635684e-15 18.0702 5.1859"></polygon>
                <polygon fill="#6300FF" points="12.0132 0 -1.77635684e-15 0 -1.77635684e-15 5.1859 12.0132 5.1859"></polygon>
                <polygon fill="#FF4400" points="18.0688 8.9331 7.0762 8.9331 7.0762 14.119 18.0688 14.119"></polygon>
            </g>
            <g transform="translate(126, 12)" fill="#FFFFFF">
                <path d="M0,12.7502 L0,10.8453 L3.462,6.8708 C4.03,6.2209 4.45,5.7608 4.723,5.4879 C4.439,5.5051 4.066,5.5169 3.601,5.5222 L0.34,5.5393 L0.34,3.5132 L7.977,3.5132 L7.977,5.2441 L4.445,9.3148 L3.202,10.6634 C3.881,10.6225 4.3,10.6028 4.464,10.6028 L8.247,10.6028 L8.247,12.7515 L0.003,12.7515 L0,12.7502 Z" id="Path"></path>
                <path d="M14.17,9.8108 L16.605,10.2194 C16.291,11.1119 15.798,11.7921 15.122,12.2588 C14.447,12.7254 13.6,12.9588 12.587,12.9588 C10.981,12.9588 9.792,12.4341 9.021,11.3848 C8.412,10.5437 8.107,9.4825 8.107,8.2012 C8.107,6.6707 8.507,5.4711 9.307,4.605 C10.107,3.7389 11.118,3.3052 12.343,3.3052 C13.716,3.3052 14.801,3.7587 15.596,4.6669 C16.391,5.5739 16.771,6.9647 16.735,8.8379 L10.612,8.8379 C10.629,9.5629 10.827,10.1272 11.204,10.5292 C11.581,10.9326 12.05,11.1343 12.613,11.1343 C12.995,11.1343 13.317,11.0302 13.578,10.8206 C13.839,10.6123 14.036,10.2761 14.17,9.8121 L14.17,9.8108 Z M14.31,7.3404 C14.293,6.6325 14.109,6.0946 13.761,5.7268 C13.413,5.359 12.99,5.1745 12.492,5.1745 C11.958,5.1745 11.518,5.3682 11.17,5.7571 C10.822,6.146 10.65,6.6733 10.657,7.3404 L14.31,7.3404 Z" id="Shape"></path>
                <path d="M19.485,6.3319 L17.268,5.9311 C17.517,5.0387 17.947,4.3769 18.554,3.9485 C19.164,3.5201 20.068,3.3052 21.267,3.3052 C22.358,3.3052 23.17,3.4344 23.702,3.6927 C24.236,3.9511 24.611,4.278 24.828,4.6762 C25.046,5.073 25.154,5.802 25.154,6.8632 L25.127,9.7159 C25.127,10.5279 25.167,11.1264 25.245,11.5113 C25.322,11.8976 25.469,12.3102 25.684,12.7505 L23.266,12.7505 C23.203,12.5883 23.124,12.3471 23.031,12.0281 C22.99,11.8831 22.961,11.7882 22.944,11.7407 C22.526,12.1467 22.081,12.4512 21.605,12.6543 C21.129,12.8573 20.621,12.9588 20.082,12.9588 C19.132,12.9588 18.382,12.7004 17.835,12.185 C17.286,11.6695 17.013,11.017 17.013,10.2287 C17.013,9.7066 17.139,9.2413 17.388,8.8326 C17.637,8.424 17.986,8.1102 18.436,7.894 C18.885,7.6765 19.533,7.4867 20.38,7.3245 C21.522,7.1097 22.314,6.9106 22.754,6.7247 L22.754,6.4809 C22.754,6.0116 22.638,5.6767 22.406,5.4763 C22.174,5.276 21.737,5.1758 21.093,5.1758 C20.658,5.1758 20.32,5.2615 20.076,5.4328 C19.832,5.6042 19.635,5.9035 19.484,6.3332 L19.485,6.3319 Z M22.756,8.3146 C22.442,8.4187 21.946,8.5439 21.269,8.6889 C20.591,8.8339 20.147,8.9763 19.939,9.1147 C19.62,9.3402 19.46,9.6275 19.46,9.9756 C19.46,10.3236 19.588,10.6136 19.842,10.8627 C20.098,11.1119 20.422,11.2371 20.817,11.2371 C21.257,11.2371 21.677,11.0921 22.078,10.8021 C22.373,10.582 22.569,10.3117 22.661,9.9927 C22.724,9.7844 22.757,9.3876 22.757,8.801 L22.757,8.3132 L22.756,8.3146 Z" id="Shape"></path>
                <path d="M26.392,12.7502 L26.392,0 L28.836,0 L28.836,4.5915 C29.59,3.7333 30.482,3.3049 31.514,3.3049 C32.639,3.3049 33.569,3.7122 34.306,4.5269 C35.043,5.3416 35.411,6.5109 35.411,8.0361 C35.411,9.5613 35.035,10.8282 34.285,11.6798 C33.534,12.5313 32.623,12.9585 31.55,12.9585 C31.023,12.9585 30.502,12.8266 29.989,12.563 C29.476,12.2993 29.033,11.9091 28.663,11.3937 L28.663,12.7502 L26.393,12.7502 L26.392,12.7502 Z M28.818,7.9319 C28.818,8.889 28.969,9.5956 29.271,10.0543 C29.694,10.7042 30.257,11.0285 30.958,11.0285 C31.497,11.0285 31.957,10.7978 32.337,10.3365 C32.717,9.8751 32.906,9.1487 32.906,8.1574 C32.906,7.1028 32.715,6.3408 32.333,5.8742 C31.951,5.4075 31.46,5.1742 30.863,5.1742 C30.266,5.1742 29.79,5.4022 29.402,5.857 C29.014,6.3118 28.82,7.0039 28.82,7.9319 L28.818,7.9319 Z" id="Shape"></path>
                <path d="M42.387,12.7502 L42.387,11.3674 C42.051,11.8604 41.609,12.2493 41.061,12.5327 C40.513,12.8174 39.935,12.9585 39.326,12.9585 C38.717,12.9585 38.149,12.8227 37.656,12.5498 C37.163,12.277 36.807,11.8947 36.586,11.4016 C36.365,10.9086 36.255,10.2271 36.255,9.3583 L36.255,3.5132 L38.699,3.5132 L38.699,7.758 C38.699,9.0565 38.744,9.8527 38.833,10.1453 C38.923,10.438 39.086,10.67 39.325,10.8414 C39.562,11.0127 39.864,11.0984 40.229,11.0984 C40.647,11.0984 41.02,10.9837 41.351,10.7544 C41.682,10.525 41.907,10.2416 42.03,9.9028 C42.151,9.564 42.213,8.7335 42.213,7.4113 L42.213,3.5132 L44.657,3.5132 L44.657,12.7502 L42.387,12.7502 Z" id="Path"></path>
                <path d="M48.459,12.7505 L46.015,12.7505 L46.015,3.5135 L48.285,3.5135 L48.285,4.8264 C48.674,4.2055 49.023,3.7969 49.333,3.6005 C49.643,3.4027 49.995,3.3052 50.39,3.3052 C50.947,3.3052 51.483,3.4594 52,3.7666 L51.243,5.8969 C50.832,5.6306 50.448,5.4961 50.095,5.4961 C49.742,5.4961 49.464,5.591 49.225,5.7782 C48.988,5.9667 48.801,6.3068 48.664,6.7999 C48.528,7.2929 48.459,8.3251 48.459,9.8965 L48.459,12.7492 L48.459,12.7505 Z" id="Path"></path>
            </g>
            <path d="M46.522,13.2 C47.5767,13.2 48.4867,13.4007 49.252,13.802 C50.0267,14.2033 50.624,14.7773 51.044,15.524 C51.4733,16.2613 51.688,17.134 51.688,18.142 C51.688,19.1407 51.4733,20.004 51.044,20.732 C50.624,21.46 50.0267,22.02 49.252,22.412 C48.4867,22.804 47.5767,23 46.522,23 L43.022,23 L43.022,13.2 L46.522,13.2 Z M46.522,21.614 C47.642,21.614 48.5007,21.3107 49.098,20.704 C49.7047,20.088 50.008,19.234 50.008,18.142 C50.008,17.0407 49.7047,16.1727 49.098,15.538 C48.5007,14.9033 47.642,14.586 46.522,14.586 L44.688,14.586 L44.688,21.614 L46.522,21.614 Z M56.3006,23.098 C55.6006,23.098 54.9846,22.944 54.4526,22.636 C53.9299,22.328 53.5192,21.8987 53.2206,21.348 C52.9312,20.7973 52.7866,20.1627 52.7866,19.444 C52.7866,18.7627 52.9312,18.156 53.2206,17.624 C53.5099,17.092 53.9112,16.672 54.4246,16.364 C54.9379,16.056 55.5212,15.902 56.1746,15.902 C56.8372,15.902 57.4206,16.0467 57.9246,16.336 C58.4286,16.6253 58.8206,17.0313 59.1006,17.554 C59.3899,18.0673 59.5346,18.6647 59.5346,19.346 C59.5346,19.458 59.5299,19.5793 59.5206,19.71 C59.5112,19.8313 59.4972,19.962 59.4786,20.102 L54.4946,20.102 C54.5412,20.4287 54.6439,20.7133 54.8026,20.956 C54.9706,21.1893 55.1806,21.3713 55.4326,21.502 C55.6846,21.6327 55.9739,21.698 56.3006,21.698 C56.6926,21.698 57.0426,21.6187 57.3506,21.46 C57.6679,21.3013 57.8872,21.0913 58.0086,20.83 L59.3946,21.292 C59.1146,21.852 58.6992,22.2953 58.1486,22.622 C57.5979,22.9393 56.9819,23.098 56.3006,23.098 Z M57.8126,18.814 C57.8032,18.5247 57.7239,18.2633 57.5746,18.03 C57.4252,17.7967 57.2292,17.6147 56.9866,17.484 C56.7439,17.344 56.4732,17.274 56.1746,17.274 C55.9132,17.274 55.6659,17.3393 55.4326,17.47 C55.1992,17.6007 54.9986,17.7827 54.8306,18.016 C54.6719,18.24 54.5692,18.506 54.5226,18.814 L57.8126,18.814 Z M62.4259,21.964 L62.6079,21.922 L62.6079,25.8 L61.0259,25.8 L61.0259,16 L62.4539,16 L62.5659,16.868 C62.7992,16.5973 63.1026,16.3687 63.4759,16.182 C63.8492,15.9953 64.3019,15.902 64.8339,15.902 C65.4406,15.902 65.9772,16.0513 66.4439,16.35 C66.9199,16.6487 67.2886,17.0687 67.5499,17.61 C67.8206,18.142 67.9559,18.772 67.9559,19.5 C67.9559,20.2187 67.8206,20.8487 67.5499,21.39 C67.2886,21.9313 66.9246,22.3513 66.4579,22.65 C65.9912,22.9487 65.4499,23.098 64.8339,23.098 C64.2739,23.098 63.7886,22.9907 63.3779,22.776 C62.9672,22.552 62.6499,22.2813 62.4259,21.964 Z M66.2619,19.5 C66.2619,18.856 66.0892,18.3333 65.7439,17.932 C65.4079,17.5307 64.9739,17.33 64.4419,17.33 C64.1059,17.33 63.7979,17.414 63.5179,17.582 C63.2472,17.75 63.0279,17.9927 62.8599,18.31 C62.6919,18.6273 62.6079,19.024 62.6079,19.5 C62.6079,19.9667 62.6919,20.3633 62.8599,20.69 C63.0279,21.0073 63.2472,21.25 63.5179,21.418 C63.7979,21.586 64.1059,21.67 64.4419,21.67 C64.9739,21.67 65.4079,21.4693 65.7439,21.068 C66.0892,20.6667 66.2619,20.144 66.2619,19.5 Z M69.4341,12.92 L71.0161,12.92 L71.0161,23 L69.4341,23 L69.4341,12.92 Z M75.9877,23.098 C75.3157,23.098 74.7137,22.9533 74.1817,22.664 C73.6497,22.3653 73.2344,21.95 72.9357,21.418 C72.6371,20.8767 72.4877,20.242 72.4877,19.514 C72.4877,18.7767 72.6417,18.1373 72.9497,17.596 C73.2577,17.0547 73.6824,16.6393 74.2237,16.35 C74.7651,16.0513 75.3671,15.902 76.0297,15.902 C76.7017,15.902 77.3037,16.0513 77.8357,16.35 C78.3771,16.6393 78.8064,17.0547 79.1237,17.596 C79.4411,18.128 79.5997,18.758 79.5997,19.486 C79.5997,20.2233 79.4364,20.8627 79.1097,21.404 C78.7924,21.9453 78.3584,22.3653 77.8077,22.664 C77.2664,22.9533 76.6597,23.098 75.9877,23.098 Z M75.9737,21.684 C76.3004,21.684 76.6084,21.6047 76.8977,21.446 C77.1964,21.2873 77.4391,21.0493 77.6257,20.732 C77.8124,20.4053 77.9057,19.99 77.9057,19.486 C77.9057,19.0007 77.8171,18.5993 77.6397,18.282 C77.4624,17.9553 77.2291,17.7127 76.9397,17.554 C76.6504,17.3953 76.3377,17.316 76.0017,17.316 C75.6751,17.316 75.3717,17.3953 75.0917,17.554 C74.8211,17.7127 74.6017,17.9553 74.4337,18.282 C74.2657,18.5993 74.1817,19.01 74.1817,19.514 C74.1817,19.9993 74.2611,20.4053 74.4197,20.732 C74.5877,21.0493 74.8071,21.2873 75.0777,21.446 C75.3484,21.6047 75.6471,21.684 75.9737,21.684 Z M85.7201,16 L87.3861,16 L83.2701,25.8 L81.7021,25.8 L82.9621,22.804 L80.2321,16 L81.9821,16 L83.8301,20.956 L85.7201,16 Z M91.5467,23.098 C90.8467,23.098 90.2307,22.944 89.6987,22.636 C89.176,22.328 88.7653,21.8987 88.4667,21.348 C88.1773,20.7973 88.0327,20.1627 88.0327,19.444 C88.0327,18.7627 88.1773,18.156 88.4667,17.624 C88.756,17.092 89.1573,16.672 89.6707,16.364 C90.184,16.056 90.7673,15.902 91.4207,15.902 C92.0833,15.902 92.6667,16.0467 93.1707,16.336 C93.6747,16.6253 94.0667,17.0313 94.3467,17.554 C94.636,18.0673 94.7807,18.6647 94.7807,19.346 C94.7807,19.458 94.776,19.5793 94.7667,19.71 C94.7573,19.8313 94.7433,19.962 94.7247,20.102 L89.7407,20.102 C89.7873,20.4287 89.89,20.7133 90.0487,20.956 C90.2167,21.1893 90.4267,21.3713 90.6787,21.502 C90.9307,21.6327 91.22,21.698 91.5467,21.698 C91.9387,21.698 92.2887,21.6187 92.5967,21.46 C92.914,21.3013 93.1333,21.0913 93.2547,20.83 L94.6407,21.292 C94.3607,21.852 93.9453,22.2953 93.3947,22.622 C92.844,22.9393 92.228,23.098 91.5467,23.098 Z M93.0587,18.814 C93.0493,18.5247 92.97,18.2633 92.8207,18.03 C92.6713,17.7967 92.4753,17.6147 92.2327,17.484 C91.99,17.344 91.7193,17.274 91.4207,17.274 C91.1593,17.274 90.912,17.3393 90.6787,17.47 C90.4453,17.6007 90.2447,17.7827 90.0767,18.016 C89.918,18.24 89.8153,18.506 89.7687,18.814 L93.0587,18.814 Z M101.424,17.036 L101.242,17.078 L101.242,12.92 L102.824,12.92 L102.824,23 L101.396,23 L101.284,22.132 C101.041,22.4027 100.733,22.6313 100.36,22.818 C99.9867,23.0047 99.5433,23.098 99.03,23.098 C98.4047,23.098 97.854,22.9487 97.378,22.65 C96.9113,22.3513 96.5473,21.9313 96.286,21.39 C96.0247,20.8487 95.894,20.2187 95.894,19.5 C95.894,18.7813 96.0247,18.1513 96.286,17.61 C96.5473,17.0687 96.9113,16.6487 97.378,16.35 C97.854,16.0513 98.4047,15.902 99.03,15.902 C99.5807,15.902 100.061,16.014 100.472,16.238 C100.883,16.4527 101.2,16.7187 101.424,17.036 Z M97.588,19.5 C97.588,20.144 97.756,20.6667 98.092,21.068 C98.428,21.4693 98.8667,21.67 99.408,21.67 C99.7347,21.67 100.033,21.586 100.304,21.418 C100.584,21.25 100.808,21.0073 100.976,20.69 C101.153,20.3633 101.242,19.9667 101.242,19.5 C101.242,19.0333 101.153,18.6413 100.976,18.324 C100.808,17.9973 100.584,17.75 100.304,17.582 C100.033,17.414 99.7347,17.33 99.408,17.33 C98.8667,17.33 98.428,17.5307 98.092,17.932 C97.756,18.3333 97.588,18.856 97.588,19.5 Z M111.726,23.098 C111.054,23.098 110.452,22.9533 109.92,22.664 C109.388,22.3653 108.973,21.95 108.674,21.418 C108.375,20.8767 108.226,20.242 108.226,19.514 C108.226,18.7767 108.38,18.1373 108.688,17.596 C108.996,17.0547 109.421,16.6393 109.962,16.35 C110.503,16.0513 111.105,15.902 111.768,15.902 C112.44,15.902 113.042,16.0513 113.574,16.35 C114.115,16.6393 114.545,17.0547 114.862,17.596 C115.179,18.128 115.338,18.758 115.338,19.486 C115.338,20.2233 115.175,20.8627 114.848,21.404 C114.531,21.9453 114.097,22.3653 113.546,22.664 C113.005,22.9533 112.398,23.098 111.726,23.098 Z M111.712,21.684 C112.039,21.684 112.347,21.6047 112.636,21.446 C112.935,21.2873 113.177,21.0493 113.364,20.732 C113.551,20.4053 113.644,19.99 113.644,19.486 C113.644,19.0007 113.555,18.5993 113.378,18.282 C113.201,17.9553 112.967,17.7127 112.678,17.554 C112.389,17.3953 112.076,17.316 111.74,17.316 C111.413,17.316 111.11,17.3953 110.83,17.554 C110.559,17.7127 110.34,17.9553 110.172,18.282 C110.004,18.5993 109.92,19.01 109.92,19.514 C109.92,19.9993 109.999,20.4053 110.158,20.732 C110.326,21.0493 110.545,21.2873 110.816,21.446 C111.087,21.6047 111.385,21.684 111.712,21.684 Z M116.821,16 L118.249,16 L118.361,16.686 C118.594,16.4433 118.869,16.252 119.187,16.112 C119.513,15.972 119.863,15.902 120.237,15.902 C120.787,15.902 121.259,16.0187 121.651,16.252 C122.052,16.476 122.36,16.812 122.575,17.26 C122.789,17.6987 122.897,18.2493 122.897,18.912 L122.897,23 L121.315,23 L121.315,19.122 C121.315,18.534 121.193,18.0907 120.951,17.792 C120.717,17.4933 120.363,17.344 119.887,17.344 C119.401,17.344 119.033,17.498 118.781,17.806 C118.529,18.1047 118.403,18.548 118.403,19.136 L118.403,23 L116.821,23 L116.821,16 Z" id="Shape" fill="#FFFFFF"></path>
        </g>
    </g>
</svg>