<?xml version="1.0" encoding="UTF-8"?>
<svg width="1237px" height="300px" viewBox="0 0 1237 300" version="1.1" xmlns="http://www.w3.org/2000/svg" xmlns:xlink="http://www.w3.org/1999/xlink">
<title>且听书吟</title>
  <g id="logo-large" stroke="none" stroke-width="1" fill="none" fill-rule="evenodd">
    <g id="logo-white" transform="translate(20, 15)">
      <path
        d="M95.5479774,135.486962 C100.290716,134.547617 104.46066,134.627395 108.053294,135.772127 C113.966407,137.656241 116.468525,139.552508 119.527601,143.942864 C121.544778,146.837896 123.197824,151.954965 124.547977,159.269051 C121.480628,160.074879 118.922174,160.051421 116.898234,159.066848 C113.281243,157.307314 109.930013,154.854322 105.030874,149.36204 C101.920908,145.875547 98.7620867,141.249025 95.5479774,135.486962 Z"
        id="font1-dot"
        fill="#E87777"></path>
      <path
        d="M47.5587025,42.6413499 L59.4150545,57.2519576 C58.8684637,57.9832966 58.3430156,58.6485661 57.8388914,59.2870617 C55.7842658,61.889336 54.0749685,64.0703301 52.6932724,68.234464 C52.3972743,69.1265385 52.1127855,69.9469062 51.8354808,70.7466353 C51.7762919,70.9173323 51.7174272,71.0870945 51.6583785,71.2577622 L51.4080304,71.9847059 L51.2428469,72.4700919 C51.2170703,72.5463221 51.1913289,72.6226961 51.1656192,72.6992573 L51.0117106,73.1612194 C49.9365927,76.4155491 48.9042374,80.1534684 47.6422403,87.5937801 C47.5786111,87.9689161 47.5175344,88.3349742 47.4594861,88.6914196 C47.8205566,88.7052825 48.1824457,88.7272292 48.5448346,88.7575303 C53.2985413,89.1550102 57.7287004,90.9558044 61.2274422,93.4383815 C64.9191616,96.0578882 67.5904277,99.4358643 68.421524,102.73783 C70.6242525,111.489322 68.0433783,128.18177 66.7604391,136.604682 C66.5760113,137.81551 66.4172222,138.858235 66.3012834,139.686204 C66.2016412,140.397791 66.0872369,141.256287 65.9581638,142.224941 C65.5876098,145.005838 65.0955267,148.699702 64.4838444,152.424745 L64.3361424,153.310702 C64.2920666,153.57103 64.247405,153.831182 64.202602,154.088327 L64.0647364,154.867719 C63.0203572,160.682068 61.8345775,166.290495 60.1402991,167.372933 C59.1659482,167.995425 58.1852887,168.319837 57.1912629,168.319837 C56.356509,168.319837 55.5191232,168.092016 54.6748194,167.653082 L56.5363189,133.786424 L56.5363189,118.952805 C56.5363189,115.701061 55.1263855,110.807176 52.875941,107.070037 C50.9302372,103.838957 48.3629758,101.576275 45.6552368,101.494204 C45.3655232,101.485423 45.0759031,101.501657 44.7872246,101.541493 C44.7393205,101.794983 44.6910298,102.05047 44.6423463,102.307982 C44.2216556,104.533231 43.8288356,106.607074 43.4615123,108.546312 C40.7188824,123.025681 39.3957424,130.014727 38.5058473,136.482186 L38.3992705,137.269874 L38.2472267,138.442822 C37.7369337,142.485349 37.3583969,146.599603 36.8681523,152.512401 L36.7720733,153.676454 C36.6744698,154.863818 36.5720959,156.122519 36.4631876,157.465038 C34.6411838,179.924984 34.6459097,194.343019 36.4678788,208.691721 C36.9300999,209.475926 37.2387054,209.829551 37.5996095,210.243082 C38.0153708,210.719468 38.5000146,211.274777 38.9984015,211.840487 L39.5091338,212.418163 C40.4663724,213.496594 41.4011441,214.52083 41.9316193,215.02291 C58.6803665,230.87513 77.107296,242.87339 106.916185,247.4201 C110.425997,247.955447 116.366501,248.499928 122.462612,248.892117 L123.720445,248.97074 L124.224982,249.000986 L125.229948,249.059012 C132.313319,249.457494 139.137562,249.613103 142.147095,249.290113 C159.931881,247.381405 179.547613,239.71767 191.550191,231.205553 L199.563204,246.267087 C183.184311,263.364504 153.471394,270.406826 128.459093,268.783502 C92.7267899,266.464438 59.6570672,251.504543 36.0192817,227.08072 C13.8613092,204.185919 0,172.974912 0,136.084268 C0,95.8042617 5.20678585,78.8281994 17.4643391,60.9623736 L23.615165,67.669314 C24.2300789,71.5053875 24.0908298,75.4888077 23.8819173,79.4637156 L23.7920604,81.122829 C23.6513999,83.6931991 23.5176088,86.2524312 23.5617746,88.7610078 L35.2808135,88.7610078 C36.8707631,80.2385778 37.7272242,75.6393315 38.3392315,72.595871 C38.7070171,70.7831879 38.9434241,69.7044519 39.1828249,68.7008499 L39.4717463,67.5274334 C39.7538699,66.424868 39.9912408,65.5392748 40.2842693,64.4459443 C41.7014155,59.1583721 44.9207598,48.8335215 47.5587025,42.6413499 Z M33.1933892,101.258656 C32.6602145,101.302832 32.1499254,101.393947 31.6649787,101.531912 C26.5554184,102.98556 21.7915951,110.342352 18.2185718,120.795944 C17.9620284,121.546513 17.7255344,122.215274 17.4910581,122.878375 C16.9981658,124.272281 16.5141151,125.64148 15.8650618,127.709854 L15.829353,127.840121 L15.7588677,128.104027 C15.736272,128.190143 15.7138608,128.277058 15.691622,128.364886 L15.6254108,128.631218 C14.5739206,132.939882 13.8917852,139.607142 12.2397013,160.97199 C14.3429123,170.17238 17.5150377,179.006857 21.9971411,187.751028 C23.4199733,190.526842 25.2281179,193.798969 26.9600704,196.708551 C27.6847124,197.925909 28.4587844,199.185248 29.243105,200.426866 C29.0940719,198.99637 28.9512035,197.555095 28.8149806,196.103615 C27.1419104,178.276741 26.7401892,161.775833 27.6116912,146.600868 C28.4832942,131.424144 30.2529663,116.783711 32.9211878,102.679629 C33.0107582,102.206164 33.101492,101.732507 33.1933892,101.258656 Z M89.6136343,57.8915456 C92.5207218,59.8413435 95.757162,62.0490497 99.322968,64.5146446 C99.5757265,64.6894158 99.8290763,64.86371 100.083123,65.0376999 L100.586746,65.3816115 C103.270392,67.2089793 105.82809,68.8691087 107.023588,69.638714 L107.12174,69.7013171 L106.622439,71.7174649 L102.10112,89.9462065 C109.509279,81.503201 116.693566,77.5133458 123.724983,78.2561059 C124.775931,78.3671222 125.818198,78.4848018 126.844767,78.6301404 C127.171633,78.6764172 127.501638,78.7221424 127.834197,78.76822 C128.609894,78.8756963 129.399629,78.9850773 130.192229,79.1076101 L130.71623,79.1905763 C134.779202,79.8501476 138.995024,80.9126593 142.243229,84.1358564 C144.698067,86.5717944 146.577854,90.2342165 147.474776,95.8124796 C148.609211,102.867923 146.177747,114.685842 143.514658,127.830297 C143.105273,129.850941 142.690629,131.902058 142.28185,133.971759 L142.010322,135.354182 C138.404784,153.81972 135.457943,173.544833 140.981739,186.178845 C144.591197,194.434389 147.644971,199.21786 150.179853,201.954525 C151.861791,203.77035 153.346236,204.723374 154.628922,205.205997 C156.612445,205.952316 158.163845,205.610158 159.338985,205.331228 C159.673711,205.251778 159.963177,205.170695 160.212486,205.170695 C161.760061,205.170695 164.889188,204.145311 169.591406,202.006587 C170.203583,207.704116 169.937427,212.441799 168.762515,216.215654 C168.325303,217.619989 168.08318,218.291265 167.229562,218.749075 C164.759118,220.074016 161.33865,219.491314 158.035932,218.660292 C152.718798,217.328664 145.375426,215.520784 139.125653,207.930129 C138.533436,207.210851 137.964535,206.526006 137.417377,205.867339 C131.943189,199.277525 128.676537,195.366456 126.006663,185.516627 C124.153503,178.679862 123.524735,173.686814 123.497999,165.346832 L123.497287,164.50688 C123.504188,159.678426 123.694904,153.744251 123.960932,145.795011 C124.422298,132.008836 126.466077,122.921303 127.986504,116.155919 C128.981823,111.727089 129.748333,108.266902 129.748333,105.145054 C129.748333,103.873678 129.916089,102.094153 130.093165,100.223439 L130.153565,99.584772 C130.378609,97.1966866 130.590493,94.7398056 130.509114,92.9955736 C130.473414,92.2303984 130.378088,91.5878183 130.223402,91.114477 C129.978656,90.3655563 129.565766,89.9621099 129.122071,89.7833286 C126.960478,88.912343 123.797914,89.6984588 120.45971,91.4684019 C116.277113,93.6860491 111.839157,97.3179607 109.143171,100.024299 C102.702707,106.489496 101.650463,108.11278 98.9103631,122.097683 C97.1454746,131.105308 95.1275565,157.925005 92.8695504,202.554835 C88.7417121,200.249882 85.8091381,197.388161 84.1031585,193.940877 C81.1874766,188.049141 80.173945,185.916077 78.5912785,175.473769 C77.3777356,167.466909 78.0187398,156.486894 78.390954,150.030858 C78.5104167,147.958784 78.60257,146.343082 78.60257,145.421556 C78.60257,141.632745 79.2111322,131.682372 80.9746846,117.107659 C81.813388,110.176274 82.2916314,106.235131 82.8703415,102.454843 L82.9960414,101.646264 C83.6128469,97.7387114 84.3731033,93.7843163 85.7879622,86.638173 C87.6146854,77.4117928 88.8900495,67.8290721 89.6136343,57.8915456 Z"
        id="Down-circle-and-font1"
        fill="#263148"></path>
      <path
        d="M126.96931,0 C166.552949,0 200.771355,18.8335538 224.335488,47.1455462 C243.947772,70.709445 257.478475,99.8259352 258.985217,133.803264 C259.663652,149.102117 254.884757,168.318925 251.00421,182.757848 L241.723032,161.357573 C242.093055,160.04666 242.618858,158.294937 243.215109,156.308153 C245.15965,149.828693 247.837278,140.878045 248.380331,136.427538 C249.191142,129.782654 250.230593,110.529648 235.615894,80.2093501 C229.18805,66.8738608 212.590335,48.7092842 199.019677,38.2407285 C185.446312,27.7700842 159.021567,20.5570019 132.111557,19.4473082 C106.501884,18.3912368 80.9927614,24.4350512 61.2580024,37.4410355 L56.6964273,21.7259635 C76.9325749,7.67716119 101.149514,0 126.96931,0 Z"
        id="Upper-circle"
        fill="#263148"></path>
      <path
        d="M154.78974,159.482317 C155.90974,165.962317 161.10974,170.762317 167.82974,170.362317 C182.38974,169.642317 187.74974,149.642317 187.34974,137.962317 C191.34974,138.522317 195.10974,140.202317 197.02974,143.962317 C199.50974,148.762317 199.10974,154.842317 196.46974,159.402317 C193.02974,165.002317 187.50974,167.482317 182.54974,171.242317 C180.78974,172.602317 180.54974,175.482317 182.86974,176.602317 C185.10974,177.562317 188.30974,175.882317 190.30974,174.922317 C201.10974,169.882317 209.02974,159.882317 207.82974,147.642317 C206.70974,136.682317 198.70974,129.642317 188.14974,127.962317 C178.62974,126.442317 168.06974,128.842317 161.34974,135.962317 C155.66974,142.122317 153.18974,151.242317 154.78974,159.482317 Z M163.18974,154.522317 C163.50974,145.162317 170.70974,138.682317 180.22974,137.722317 C179.34974,143.962317 177.66974,150.442317 174.22974,155.802317 C172.86974,157.882317 171.02974,160.282317 168.54974,160.842317 C164.70974,161.642317 163.10974,157.482317 163.18974,154.522317 Z"
        id="font2"
        fill="#263148"
        fill-rule="nonzero"></path>
      <path
        d="M210.72574,196.794317 C210.96574,195.786317 210.53374,195.258317 209.47774,195.258317 L204.82174,195.258317 C203.71774,195.258317 203.28574,195.786317 203.57374,196.842317 C204.00574,198.522317 204.43774,200.106317 204.77374,201.594317 C204.96574,202.554317 205.54174,203.034317 206.50174,203.034317 L207.60574,203.034317 C208.56574,203.034317 209.18974,202.602317 209.47774,201.690317 C209.95774,200.106317 210.38974,198.474317 210.72574,196.794317 Z M204.19774,227.754317 C203.71774,227.706317 203.33374,227.850317 203.09374,228.090317 C202.18174,229.002317 201.60574,229.482317 201.36574,229.482317 L198.10174,229.482317 C197.09374,229.482317 196.61374,229.002317 196.61374,227.994317 L196.61374,212.490317 C196.61374,211.578317 197.09374,211.098317 198.05374,211.098317 L216.14974,211.098317 C217.06174,211.098317 217.54174,211.578317 217.54174,212.490317 L217.54174,228.042317 C217.54174,229.002317 217.06174,229.482317 216.10174,229.482317 L213.17374,229.482317 C212.74174,229.434317 212.35774,229.338317 212.11774,229.146317 C211.01374,228.234317 210.38974,227.754317 210.24574,227.754317 L204.19774,227.754317 Z M237.36574,210.330317 C238.27774,212.346317 238.70974,214.410317 238.70974,216.522317 C238.70974,219.450317 238.13374,221.562317 236.98174,222.810317 C235.82974,224.058317 234.00574,224.682317 231.46174,224.682317 L229.92574,224.682317 C228.96574,224.682317 228.38974,224.250317 228.19774,223.338317 L227.71774,220.938317 C227.47774,219.930317 227.90974,219.450317 228.96574,219.402317 C230.40574,219.354317 231.36574,219.162317 231.89374,218.730317 C232.42174,218.298317 232.70974,217.434317 232.70974,216.138317 C232.70974,213.114317 231.17374,209.898317 228.10174,206.394317 C227.47774,205.674317 227.33374,204.906317 227.76574,204.042317 C229.25374,201.210317 230.59774,198.042317 231.74974,194.586317 C232.08574,193.530317 231.65374,193.002317 230.50174,193.002317 L228.00574,193.002317 C227.04574,193.002317 226.56574,193.482317 226.56574,194.394317 L226.56574,228.042317 C226.56574,229.002317 226.08574,229.482317 225.12574,229.482317 L222.10174,229.482317 C221.09374,229.482317 220.61374,229.002317 220.61374,227.994317 L220.61374,189.594317 C220.61374,188.634317 221.09374,188.154317 222.05374,188.154317 L236.88574,188.154317 C237.84574,188.154317 238.32574,188.634317 238.32574,189.546317 L238.32574,191.562317 C238.32574,192.570317 238.18174,193.482317 237.89374,194.394317 C236.83774,197.706317 235.58974,200.874317 234.14974,203.802317 C233.71774,204.618317 233.86174,205.386317 234.53374,206.106317 C235.68574,207.354317 236.64574,208.746317 237.36574,210.330317 Z M197.81374,196.650317 C197.62174,195.930317 197.18974,195.450317 196.56574,195.306317 C195.60574,195.066317 195.12574,194.586317 195.12574,193.818317 L195.12574,191.706317 C195.12574,190.746317 195.60574,190.266317 196.56574,190.266317 L202.18174,190.266317 C203.14174,190.266317 203.62174,189.786317 203.62174,188.826317 L203.62174,187.626317 C203.62174,186.666317 204.10174,186.186317 205.06174,186.186317 L208.46974,186.186317 C209.38174,186.186317 209.86174,186.666317 209.86174,187.626317 L209.86174,188.826317 C209.86174,189.786317 210.34174,190.266317 211.30174,190.266317 L217.30174,190.266317 C218.26174,190.266317 218.74174,190.746317 218.74174,191.706317 L218.74174,193.818317 C218.74174,194.490317 218.50174,194.922317 218.02174,195.114317 C217.01374,195.546317 216.43774,196.074317 216.29374,196.650317 C215.95774,198.234317 215.52574,199.818317 215.04574,201.402317 C214.70974,202.506317 215.14174,203.034317 216.29374,203.034317 L217.78174,203.034317 C218.74174,203.034317 219.22174,203.514317 219.22174,204.474317 L219.22174,206.778317 C219.22174,207.738317 218.74174,208.218317 217.78174,208.218317 L196.08574,208.218317 C195.17374,208.218317 194.69374,207.738317 194.69374,206.778317 L194.69374,204.474317 C194.69374,203.514317 195.17374,203.034317 196.08574,203.034317 L197.81374,203.034317 C198.91774,203.034317 199.30174,202.506317 199.06174,201.450317 C198.67774,199.914317 198.24574,198.330317 197.81374,196.650317 Z M210.24574,222.954317 C211.20574,222.954317 211.68574,222.474317 211.68574,221.514317 L211.68574,217.530317 C211.68574,216.618317 211.20574,216.138317 210.24574,216.138317 L204.19774,216.138317 C203.23774,216.138317 202.75774,216.618317 202.75774,217.578317 L202.75774,221.562317 C202.75774,222.474317 203.23774,222.954317 204.19774,222.954317 L210.24574,222.954317 Z"
        id="font3"
        fill="#263148"
        fill-rule="nonzero"></path>
      <path
        d="M269.68574,209.658317 C271.36574,209.514317 271.65374,208.794317 270.54974,207.498317 C258.88574,193.914317 258.11774,193.098317 268.34174,204.954317 C269.20574,205.962317 268.67774,206.442317 266.80574,206.442317 L263.87774,206.442317 C262.91774,206.442317 262.19774,206.874317 261.76574,207.690317 C260.90174,209.370317 260.80574,209.562317 261.47774,208.266317 C260.75774,209.658317 261.18974,210.282317 262.72574,210.186317 C265.17374,209.994317 267.52574,209.802317 269.68574,209.658317 Z M252.02174,215.274317 C251.06174,215.322317 250.53374,214.842317 250.48574,213.882317 L250.38974,212.202317 C250.34174,211.290317 250.77374,210.762317 251.73374,210.714317 C251.82974,210.714317 251.92574,210.714317 252.02174,210.714317 C253.17374,210.666317 253.22174,210.666317 252.21374,210.714317 C253.17374,210.666317 253.89374,210.234317 254.37374,209.418317 C254.51774,209.226317 254.70974,208.842317 255.04574,208.266317 C255.71774,207.066317 255.33374,206.442317 253.94174,206.442317 L251.06174,206.442317 C250.10174,206.442317 249.62174,206.922317 249.62174,207.882317 C249.52574,213.306317 248.80574,218.154317 247.41374,222.330317 C247.02974,223.482317 247.46174,224.058317 248.66174,224.058317 L260.46974,224.058317 C261.38174,224.058317 261.86174,223.674317 261.90974,222.858317 C261.95774,221.898317 261.47774,221.418317 260.46974,221.418317 L251.58974,221.418317 C250.62974,221.418317 250.14974,220.938317 250.14974,219.978317 L250.14974,218.490317 C250.14974,217.530317 250.62974,217.050317 251.58974,217.050317 L260.46974,217.050317 C261.18974,217.050317 261.66974,216.762317 261.81374,216.234317 C262.14974,215.226317 261.66974,214.794317 260.42174,214.842317 C257.58974,215.034317 254.75774,215.178317 252.02174,215.274317 Z M251.06174,195.402317 L273.76574,195.402317 C274.58174,195.402317 275.06174,195.018317 275.15774,194.250317 C275.25374,193.290317 274.77374,192.810317 273.71774,192.810317 L251.01374,192.810317 C250.00574,192.810317 249.52574,193.290317 249.62174,194.250317 C249.71774,195.018317 250.19774,195.402317 251.06174,195.402317 Z M281.49374,212.346317 C282.11774,213.162317 281.97374,213.786317 281.06174,214.314317 L278.85374,215.562317 C277.98974,216.042317 277.26974,215.898317 276.69374,215.130317 C276.93374,215.466317 276.83774,215.274317 276.35774,214.650317 C275.78174,213.882317 275.01374,213.546317 274.00574,213.642317 C272.51774,213.786317 271.07774,213.930317 269.63774,214.074317 C268.72574,214.170317 268.24574,214.698317 268.19774,215.610317 C268.14974,216.570317 268.62974,217.050317 269.58974,217.050317 L279.04574,217.050317 C279.95774,217.050317 280.43774,217.530317 280.43774,218.490317 L280.43774,219.978317 C280.43774,220.938317 279.95774,221.418317 279.04574,221.418317 L269.58974,221.418317 C268.72574,221.418317 268.24574,221.802317 268.19774,222.618317 C268.14974,223.578317 268.62974,224.058317 269.63774,224.058317 L281.58974,224.058317 C282.54974,224.058317 283.02974,224.538317 283.02974,225.450317 L283.02974,227.418317 C283.02974,228.378317 282.54974,228.858317 281.63774,228.858317 L249.42974,228.810317 C246.11774,228.810317 244.34174,228.954317 244.19774,229.242317 C244.29374,229.050317 244.38974,228.906317 244.43774,228.810317 C244.19774,229.194317 243.71774,228.906317 242.99774,227.994317 L240.74174,225.306317 C240.16574,224.586317 240.06974,223.818317 240.45374,222.906317 C241.50974,220.506317 242.27774,217.914317 242.80574,215.178317 C243.38174,211.914317 243.66974,207.642317 243.66974,202.410317 L243.66974,189.594317 C243.66974,188.634317 244.14974,188.154317 245.06174,188.154317 L279.95774,188.154317 C280.86974,188.154317 281.34974,188.634317 281.34974,189.594317 L281.34974,198.282317 C281.34974,199.242317 280.86974,199.722317 279.90974,199.722317 L251.01374,199.722317 C250.34174,199.722317 249.90974,199.962317 249.71774,200.490317 C249.38174,201.450317 249.81374,201.930317 251.06174,201.930317 L280.91774,201.930317 C281.87774,201.930317 282.35774,202.410317 282.35774,203.370317 L282.35774,205.050317 C282.35774,205.962317 281.87774,206.442317 280.96574,206.442317 L279.52574,206.442317 C277.65374,206.442317 277.31774,207.162317 278.51774,208.602317 C279.57374,209.898317 280.58174,211.146317 281.49374,212.346317 Z"
        id="font4"
        fill="#263148"
        fill-rule="nonzero"></path>
    </g>
    <g id="title" transform="translate(365, 40)" fill="#263148" fill-rule="nonzero">
      <path
        d="M49.7786196,143.857143 C44.7400831,143.857143 42.3303482,146.274725 42.3303482,151.32967 L42.3303482,179.241758 C42.3303482,184.296703 44.7400831,186.934066 49.7786196,186.934066 L142.005745,186.934066 C147.044282,186.934066 149.673083,184.516484 149.673083,179.461538 L149.673083,151.549451 C149.673083,146.494505 147.044282,143.857143 142.005745,143.857143 L49.7786196,143.857143 Z M49.7786196,89.1318681 C44.7400831,89.1318681 42.3303482,91.5494505 42.3303482,96.6043956 L42.3303482,122.098901 C42.3303482,127.153846 44.7400831,129.791209 49.7786196,129.791209 L142.005745,129.791209 C147.044282,129.791209 149.673083,127.373626 149.673083,122.318681 L149.673083,96.8241758 C149.673083,91.7692308 147.044282,89.1318681 142.005745,89.1318681 L49.7786196,89.1318681 Z M42.3303482,67.5934066 C42.3303482,72.6483516 44.7400831,75.2857143 49.7786196,75.2857143 L142.005745,75.2857143 C147.044282,75.2857143 149.673083,72.6483516 149.673083,67.5934066 L149.673083,42.978022 C149.673083,37.9230769 147.263348,35.2857143 142.224812,35.2857143 L49.9976865,35.2857143 C44.9591499,35.2857143 42.3303482,37.9230769 42.3303482,42.978022 L42.3303482,67.5934066 Z M184.285639,201 L7.49872602,201 C2.89832309,200.78022 0.488588219,198.582418 0.0504546065,194.406593 C-0.387679006,189.351648 2.02205586,186.934066 7.49872602,186.934066 L17.7948659,186.934066 C22.8334025,186.934066 25.4622041,184.296703 25.4622041,179.241758 L25.4622041,28.6923077 C25.4622041,23.6373626 28.0910058,21 33.1295424,21 L158.873889,21 C163.912426,21 166.541227,23.6373626 166.541227,28.6923077 L166.541227,179.241758 C166.541227,184.296703 168.950962,186.934066 173.989499,186.934066 L184.285639,186.934066 C189.762309,186.934066 192.391111,189.351648 191.952977,194.406593 C191.514843,198.582418 188.886042,200.78022 184.285639,201 Z"
        id="Shape"></path>
      <path
        d="M240.493056,151.997823 C240.493056,157.067415 243.131944,159.712419 248.189815,159.712419 L260.724537,159.712419 C265.782407,159.712419 268.421296,157.067415 268.421296,151.997823 L268.421296,49.06306 C268.421296,43.9934679 265.782407,41.5688803 260.724537,41.5688803 L248.189815,41.5688803 C243.131944,41.5688803 240.493056,43.9934679 240.493056,49.06306 L240.493056,151.997823 Z M302.287037,118.494431 C305.585648,98.8773135 307.344907,72.4272674 307.564815,38.9238757 C307.564815,33.8542836 310.203704,30.9888619 315.261574,30.5480278 C345.388889,28.1234402 371.118056,24.1559333 392.449074,18.42509 C397.506944,17.1025877 400.585648,18.8659241 402.125,23.7150992 L402.125,23.9355163 C403.664352,29.0051084 401.905093,32.0909472 396.847222,33.4134495 C378.375,38.4830416 356.384259,42.0097144 331.094907,44.434302 C326.037037,44.8751361 323.398148,47.7405577 323.178241,52.8101499 C322.958333,60.9655808 322.958333,67.5780923 322.738426,73.0885185 C322.518519,78.1581107 324.9375,80.8031153 330.215278,80.8031153 L406.303241,80.8031153 C411.361111,80.8031153 414,83.2277029 414,88.297295 C414,93.3668872 411.361111,96.0118918 406.303241,96.0118918 L392.888889,96.0118918 C387.831019,96.0118918 385.19213,98.4364794 385.19213,103.506072 L385.19213,198.50582 C385.19213,203.575412 382.553241,206 377.49537,206 L376.175926,205.779583 C370.898148,206 368.259259,203.354995 368.259259,198.064986 L368.259259,103.506072 C368.259259,98.4364794 365.62037,96.0118918 360.5625,96.0118918 L328.895833,96.0118918 C323.837963,96.0118918 320.979167,98.6568964 320.539352,103.726489 C318.12037,126.429445 314.162037,144.72406 308.664352,159.051168 C303.386574,172.717025 295.689815,185.280797 285.574074,196.962901 C282.275463,200.930408 278.756944,201.150825 274.798611,197.403735 L274.358796,196.742484 C270.62037,193.436228 270.180556,189.909555 273.479167,186.162465 C275.018519,184.178712 275.898148,183.076627 275.898148,183.076627 C280.516204,177.125366 278.976852,174.039528 271.280093,174.039528 L248.189815,174.039528 C243.131944,174.039528 240.493056,176.684532 240.493056,181.754124 L240.493056,183.076627 C240.493056,188.146219 237.854167,190.791224 232.796296,190.791224 L231.476852,190.791224 C226.418981,190.791224 224,188.366636 224,183.297044 L224,34.5155347 C224,29.4459426 226.638889,26.8009379 231.696759,26.8009379 L276.997685,26.8009379 C282.055556,26.8009379 284.694444,29.4459426 284.694444,34.5155347 L284.694444,153.320325 C284.694444,166.986182 287.333333,167.647433 292.391204,155.304078 C296.569444,144.503643 299.868056,132.380705 302.287037,118.494431 Z"
        id="Shape"></path>
      <path
        d="M524.749145,47.6933333 C522.32041,48.3422222 517.5439,49.3966667 510.419612,50.8566667 C503.295325,52.3166667 498.842645,53.0466667 497.061574,53.0466667 C495.118586,53.0466667 491.880274,51.9922222 487.346636,49.8833333 C482.812999,47.7744444 480.54618,45.9088889 480.54618,44.2866667 C480.54618,42.6644444 483.217788,41.8533333 488.561003,41.8533333 C499.40935,41.6911111 511.067275,40.7988889 523.534778,39.1766667 C524.020525,38.8522222 524.263398,35.2833333 524.263398,28.47 C524.263398,24.4144444 522.7252,19.345 519.648803,13.2616667 C516.572406,7.17833333 515.034208,3.89333333 515.034208,3.40666667 C515.034208,1.13555556 517.5439,0 522.563284,0 C527.906499,0 533.330673,1.90611111 538.835804,5.71833333 C544.340935,9.53055556 547.093501,13.9511111 547.093501,18.98 C547.093501,20.9266667 546.769669,23.9277778 546.122007,27.9833333 C545.474344,32.0388889 545.150513,35.04 545.150513,36.9866667 C556.808438,35.8511111 564.094641,34.7155556 567.009122,33.58 C567.656784,33.4177778 569.437856,32.5255556 572.352338,30.9033333 C575.266819,29.2811111 577.371722,28.47 578.667047,28.47 C581.581528,28.47 586.31756,31.1061111 592.875143,36.3783333 C599.432725,41.6505556 602.711517,45.6655556 602.711517,48.4233333 C602.711517,50.0455556 600.849487,52.7222222 597.125428,56.4533333 C610.564424,53.8577778 618.49829,52.56 620.927024,52.56 C624.651083,52.56 629.427594,54.2633333 635.256556,57.67 C641.085519,61.0766667 644,64.4022222 644,67.6466667 C644,69.9177778 642.623717,71.0533333 639.871152,71.0533333 C638.413911,71.0533333 636.875713,70.8911111 635.256556,70.5666667 C633.6374,70.2422222 631.815849,69.7961111 629.791904,69.2283333 C627.767959,68.6605556 626.270239,68.2955556 625.298746,68.1333333 C615.259977,66.1866667 604.81642,65.2133333 593.968073,65.2133333 C592.510832,65.2133333 590.608324,66.7138889 588.260547,69.715 C585.912771,72.7161111 583.645952,76.0416667 581.460091,79.6916667 C579.27423,83.3416667 576.481186,86.6672222 573.080958,89.6683333 C569.68073,92.6694444 566.199544,94.17 562.6374,94.17 C561.503991,94.17 559.884835,93.9266667 557.779932,93.44 C555.675029,92.9533333 554.217788,92.71 553.40821,92.71 L545.63626,92.71 C543.855188,92.71 542.883694,94.6161111 542.721779,98.4283333 C542.559863,102.240556 542.640821,105.201111 542.964652,107.31 C551.54618,106.012222 556.484607,105.201111 557.779932,104.876667 C558.913341,104.552222 560.653934,103.984444 563.00171,103.173333 C565.349487,102.362222 567.494869,101.713333 569.437856,101.226667 C571.380844,100.74 573.161916,100.496667 574.781072,100.496667 C577.695553,100.496667 581.379133,101.429444 585.831813,103.295 C590.284493,105.160556 592.510832,107.31 592.510832,109.743333 C592.510832,111.203333 591.660775,112.095556 589.960661,112.42 C588.260547,112.744444 586.843786,112.825556 585.710376,112.663333 L569.923603,113.636667 L542.964652,115.096667 L542.721779,128.723333 C556.970353,128.398889 567.656784,127.993333 574.781072,127.506667 C576.238312,127.506667 578.667047,127.182222 582.067275,126.533333 C585.467503,125.884444 588.058153,125.56 589.839225,125.56 C593.401368,125.56 598.056442,126.695556 603.804447,128.966667 C609.552452,131.237778 612.426454,133.833333 612.426454,136.753333 C612.426454,139.348889 610.240593,140.646667 605.868871,140.646667 C605.221209,140.646667 602.630559,140.241111 598.096921,139.43 C582.876853,136.834444 571.542759,135.536667 564.094641,135.536667 C542.397948,135.536667 521.915621,138.132222 502.647662,143.323333 C502,143.485556 499.895097,144.093889 496.332953,145.148333 C492.77081,146.202778 489.330103,147.176111 486.010832,148.068333 C482.691562,148.960556 480.384265,149.406667 479.08894,149.406667 C476.49829,149.406667 472.126568,148.068333 465.973774,145.391667 C459.820981,142.715 456.744584,140.322222 456.744584,138.213333 C456.744584,136.591111 458.039909,135.78 460.630559,135.78 C462.735462,135.78 465.933295,135.942222 470.224059,136.266667 C474.514823,136.591111 477.712657,136.753333 479.81756,136.753333 C484.351197,136.753333 489.006271,136.469444 493.782782,135.901667 C498.559293,135.333889 504.550171,134.441667 511.755416,133.225 C518.960661,132.008333 523.534778,131.237778 525.477765,130.913333 L525.477765,118.016667 L508.233751,120.936667 C506.938426,121.098889 504.631129,121.747778 501.311859,122.883333 C497.992588,124.018889 495.523375,124.586667 493.904219,124.586667 C491.475485,124.586667 487.994299,123.086111 483.460661,120.085 C478.927024,117.083889 476.660205,114.61 476.660205,112.663333 L477.145952,111.446667 C477.793615,110.96 479.007982,110.716667 480.789054,110.716667 C482.40821,110.716667 484.836944,110.919444 488.075257,111.325 C491.313569,111.730556 493.661345,111.933333 495.118586,111.933333 C498.033067,111.933333 503.538198,111.649444 511.633979,111.081667 C519.729761,110.513889 524.020525,109.905556 524.506271,109.256667 C524.992018,108.607778 525.234892,103.741111 525.234892,94.6566667 C522.968073,94.6566667 519.527366,95.265 514.912771,96.4816667 C510.298176,97.6983333 506.776511,98.3066667 504.347777,98.3066667 C501.919042,98.3066667 498.802166,97.6983333 494.997149,96.4816667 C491.192132,95.265 489.289624,93.7644444 489.289624,91.98 C489.289624,90.52 490.584949,89.79 493.175599,89.79 C506.776511,88.1677778 517.381984,86.7888889 524.992018,85.6533333 L525.234892,69.1066667 C522.968073,69.4311111 518.596351,69.9177778 512.119726,70.5666667 C505.643101,71.2155556 500.218928,71.9455556 495.847206,72.7566667 C491.475485,73.5677778 487.265678,74.6222222 483.217788,75.92 C483.055872,75.92 478.724629,77.4205556 470.224059,80.4216667 C461.723489,83.4227778 456.906499,84.9233333 455.77309,84.9233333 C452.858609,84.9233333 448.00114,83.3416667 441.200684,80.1783333 C434.400228,77.015 431,74.2166667 431,71.7833333 C431,70.1611111 433.104903,69.35 437.314709,69.35 C438.124287,69.35 439.622007,69.4716667 441.807868,69.715 C443.993729,69.9583333 445.653364,69.9988889 446.786773,69.8366667 C471.236032,67.5655556 497.223489,64.24 524.749145,59.86 L524.749145,47.6933333 Z M570.652223,56.4533333 C570.814139,55.6422222 571.340365,53.9388889 572.230901,51.3433333 C573.121437,48.7477778 573.566705,46.72 573.566705,45.26 C573.566705,42.8266667 571.866591,41.61 568.466363,41.61 C565.713797,41.61 561.706385,42.0966667 556.444128,43.07 C551.18187,44.0433333 547.255416,44.53 544.664766,44.53 L544.179019,58.1566667 C546.445838,57.9944444 550.615165,57.7511111 556.687001,57.4266667 C562.758837,57.1022222 567.413911,56.7777778 570.652223,56.4533333 Z M566.766249,65.2133333 L543.693273,66.6733333 L543.450399,83.4633333 C547.984036,83.4633333 551.222349,83.3416667 553.165336,83.0983333 C555.108324,82.855 557.09179,81.9222222 559.115735,80.3 C561.139681,78.6777778 562.880274,76.1633333 564.337514,72.7566667 C565.794755,69.0255556 566.604333,66.5111111 566.766249,65.2133333 Z M581.824401,144.783333 C584.576967,144.783333 588.948689,147.865556 594.939567,154.03 C600.930445,160.194444 603.925884,164.655556 603.925884,167.413333 L603.925884,167.9 C603.602052,169.197778 602.22577,170.860556 599.797035,172.888333 C597.368301,174.916111 595.91106,176.335556 595.425314,177.146667 L582.310148,197.586667 C581.176739,199.371111 580.124287,201.196111 579.152794,203.061667 C578.1813,204.927222 576.805017,206.630556 575.023945,208.171667 C573.242873,209.712778 571.299886,210.483333 569.194983,210.483333 C567.09008,210.483333 563.77081,209.793889 559.237172,208.415 C554.703535,207.036111 551.141391,206.508889 548.550741,206.833333 C543.207526,207.157778 536.649943,207.725556 528.877993,208.536667 C521.106043,209.347778 514.629418,210.483333 509.448119,211.943333 C507.828962,212.43 506.128848,213.727778 504.347777,215.836667 C502.566705,217.945556 501.028506,219 499.733181,219 C499.247434,219 498.68073,218.837778 498.033067,218.513333 C495.766249,217.377778 493.661345,212.835556 491.718358,204.886667 C489.775371,196.937778 488.641961,191.584444 488.31813,188.826667 C486.698974,181.526667 483.86545,173.577778 479.81756,164.98 C479.81756,164.817778 479.331813,164.047222 478.360319,162.668333 C477.388826,161.289444 476.903079,160.194444 476.903079,159.383333 C476.903079,159.221111 476.984036,158.977778 477.145952,158.653333 L477.388826,158.166667 C478.036488,157.517778 478.927024,157.193333 480.060433,157.193333 C482.003421,157.193333 484.836944,157.882778 488.561003,159.261667 C492.285063,160.640556 495.199544,161.33 497.304447,161.33 C500.380844,161.33 503.740593,161.046111 507.383694,160.478333 C511.026796,159.910556 515.115165,159.14 519.648803,158.166667 C524.18244,157.193333 527.420753,156.544444 529.36374,156.22 L569.68073,149.163333 C570.976055,149.001111 572.919042,148.230556 575.509692,146.851667 C578.100342,145.472778 580.205245,144.783333 581.824401,144.783333 Z M506.776511,204.4 C514.224629,202.615556 523.575257,201.115 534.828392,199.898333 C546.081528,198.681667 555.432155,197.748889 562.880274,197.1 C564.661345,195.802222 567.09008,190.611111 570.166477,181.526667 C573.242873,172.442222 574.781072,166.521111 574.781072,163.763333 C574.781072,159.87 572.352338,157.923333 567.494869,157.923333 C566.199544,157.923333 562.961231,158.328889 557.779932,159.14 C529.282782,164.006667 510.581528,167.413333 501.676169,169.36 L503.619156,181.526667 C506.047891,181.04 510.379133,179.904444 516.612885,178.12 C522.846636,176.335556 528.554162,174.875556 533.735462,173.74 C538.916762,172.604444 543.288483,172.036667 546.850627,172.036667 C549.603193,172.036667 552.639111,172.523333 555.958381,173.496667 C559.277651,174.47 560.937286,175.93 560.937286,177.876667 C560.937286,179.985556 551.789054,182.175556 533.492588,184.446667 C515.196123,186.717778 505.724059,188.34 505.076397,189.313333 L506.776511,204.4 Z"
        id="Shape"></path>
      <path
        d="M677.021778,161.388886 C677.021778,166.440162 679.436018,169.07561 684.483976,169.07561 L696.555178,169.07561 C701.603136,169.07561 704.236853,166.440162 704.236853,161.388886 L704.236853,49.6019631 C704.236853,44.5506876 701.822612,41.9152395 696.774655,41.9152395 L684.703452,41.9152395 C679.655495,41.9152395 677.021778,44.5506876 677.021778,49.6019631 L677.021778,161.388886 Z M788.954747,34.4481366 C785.662601,30.2753438 782.150978,30.2753438 778.858832,34.4481366 C770.299252,44.7703083 761.739672,54.433618 752.741139,63.4380656 C746.156847,69.8070652 747.473706,73.1013753 756.472238,73.1013753 L811.560817,73.1013753 C820.55935,73.1013753 821.656732,69.8070652 815.07244,63.4380656 C806.073907,54.433618 797.514327,44.7703083 788.954747,34.4481366 Z M851.286048,73.1013753 C855.456099,76.1760647 856.114529,79.9096162 853.261335,84.3020297 L852.602906,85.400133 C849.749713,89.7925465 846.457567,90.4514085 842.287515,87.3767191 C839.653798,85.400133 837.897987,83.8627883 837.020081,83.2039263 C840.312227,86.058995 836.581128,87.3767191 825.387831,87.3767191 L747.912658,87.3767191 C746.376324,87.3767191 745.059465,87.1570984 743.962083,86.7178571 C736.280409,83.2039263 732.110357,81.8862022 731.012975,82.7646849 C731.232451,82.5450643 729.47664,83.8627883 726.184494,86.4982364 C722.014442,89.7925465 720.039154,93.7457186 720.039154,98.7969941 L720.039154,176.103471 C720.039154,181.154747 717.624914,183.570574 712.576956,183.570574 L684.703452,183.570574 C680.094448,183.570574 677.680207,185.54716 677.021778,189.280712 C676.363349,194.331987 673.949108,196.967435 669.340104,196.967435 L668.901151,196.747815 C663.633717,196.967435 661,194.331987 661,189.280712 L661,34.6677573 C661,29.6164818 663.633717,27.2006544 668.681674,27.2006544 L712.576956,27.2006544 C717.624914,27.2006544 720.039154,29.6164818 720.039154,34.6677573 L720.039154,58.1671694 C720.039154,66.2931344 723.111824,67.8304791 729.257164,62.5595829 C743.084177,50.4804458 756.033286,36.863964 768.104488,22.1493789 C771.396634,17.9765861 775.566686,16 780.614644,16 L787.198936,16 C792.246893,16 796.416945,17.9765861 799.709091,22.1493789 C814.633487,40.8171362 831.752647,57.7279281 851.286048,73.1013753 Z M787.198936,203.336435 C783.467837,206.850366 779.517261,206.850366 775.786163,203.556056 L774.908257,202.677573 C770.957681,199.163642 770.957681,195.649711 774.908257,192.135781 C793.563752,175.005368 809.146577,156.337611 821.876209,136.352129 C825.607308,130.422371 823.851496,127.567302 816.828251,127.567302 L734.96355,127.567302 C729.915593,127.567302 727.501352,125.151475 727.281876,120.539441 C727.062399,115.488165 729.696116,112.852717 734.96355,112.852717 L838.556416,112.852717 C843.604373,112.852717 846.018614,115.268545 846.23809,119.880579 C846.457567,124.931854 845.140708,129.763509 842.506991,134.375543 C827.363119,160.510404 808.9271,183.350954 787.198936,203.336435 Z"
        id="Shape"></path>
    </g>
  </g>
</svg>
