<?xml version="1.0" standalone="no"?>
<svg version="1.0" xmlns="http://www.w3.org/2000/svg"
 width="700.000000pt" height="700.000000pt" viewBox="0 0 700.000000 700.000000"
 preserveAspectRatio="xMidYMid meet">
<g transform="translate(0.000000,700.000000) scale(0.100000,-0.100000)"
fill="#000000" stroke="none">
<path d="M0 3500 l0 -3500 3500 0 3500 0 0 3500 0 3500 -3500 0 -3500 0 0
-3500z m2242 3173 c101 -126 188 -234 192 -241 5 -8 -21 -50 -68 -115 -99
-133 -134 -205 -206 -420 -83 -246 -129 -436 -175 -723 l-6 -41 93 -6 c158
-10 338 -75 471 -171 91 -64 199 -183 236 -258 76 -154 88 -458 35 -918 -24
-209 -151 -1092 -185 -1278 -64 -358 -97 -422 -218 -422 l-41 0 0 42 c0 23 16
330 36 683 30 551 35 685 31 965 -3 300 -5 331 -26 405 -70 248 -201 450 -334
514 -61 29 -157 39 -178 19 -10 -10 -47 -190 -107 -509 -150 -805 -173 -958
-216 -1474 -94 -1110 -98 -1583 -21 -2313 15 -147 14 -218 -6 -207 -19 12 -83
140 -116 233 -87 244 -112 419 -155 1067 -20 302 -17 1235 5 1525 23 303 60
664 92 910 23 168 100 647 121 749 l7 34 -63 -6 c-172 -15 -340 -177 -484
-465 -57 -114 -91 -199 -167 -417 -94 -269 -119 -423 -174 -1090 -14 -170 -26
-318 -28 -328 -2 -16 -14 -10 -72 34 -98 74 -180 161 -210 224 -79 169 -109
555 -86 1135 43 1090 185 1661 569 2283 l67 108 92 -98 c58 -61 96 -111 103
-133 11 -38 12 -342 2 -595 -4 -88 -5 -179 -3 -203 l3 -42 271 2 270 3 58 308
c81 434 103 533 174 782 87 303 213 675 229 675 2 0 87 -102 188 -227z m1726
-516 c114 -79 244 -168 288 -198 l82 -54 -63 -260 c-35 -143 -88 -359 -119
-480 -30 -121 -54 -221 -52 -222 1 -1 22 23 46 55 220 281 464 470 681 527
107 29 389 7 604 -45 322 -79 487 -314 502 -713 9 -224 -16 -398 -157 -1111
-175 -889 -220 -1217 -220 -1616 0 -419 51 -625 251 -1009 94 -182 168 -291
258 -382 122 -123 222 -161 360 -139 112 18 185 38 285 76 48 19 90 34 92 34
8 0 3 -278 -6 -340 -6 -36 -20 -96 -31 -133 -18 -62 -23 -70 -57 -84 -107 -45
-465 35 -695 155 -164 86 -248 165 -466 437 -178 222 -253 348 -320 539 -130
368 -161 662 -142 1341 20 730 46 979 151 1460 65 298 80 389 90 550 5 83 14
209 21 280 26 298 -17 375 -200 362 -207 -14 -529 -223 -798 -517 -103 -114
-162 -201 -202 -302 -35 -89 -90 -308 -125 -499 -23 -126 -66 -462 -66 -519
l0 -25 187 0 188 0 110 -38 c134 -46 216 -91 289 -158 71 -64 149 -170 185
-250 66 -147 154 -485 129 -500 -20 -13 -135 -22 -190 -16 -219 26 -580 364
-835 780 -37 59 -68 105 -70 103 -15 -15 -86 -1063 -143 -2106 -12 -206 -23
-376 -25 -378 -7 -7 -100 65 -141 110 -61 66 -102 130 -156 246 -86 183 -123
321 -169 622 -26 178 -35 520 -20 800 6 118 16 323 22 455 13 338 37 601 100
1130 54 455 76 597 159 1023 75 382 123 708 151 1015 7 75 16 137 21 137 4 0
101 -65 216 -143z"/>
</g>
</svg>
