<svg id="icon-QQ" viewBox="0 0 1024 1024"><path d="M825.82555555 598.78555555c-17.06666667-54.82666667-36.69333333-100.90666667-66.87999999-176.31999999C763.63888889 224.38555555 681.29222223 64.17222222 491.63888889 64.17222222 299.85222222 64.17222222 219.31888889 227.58555556 224.4388889 422.46555556c-30.29333333 75.52-49.81333333 121.28-66.88 176.31999999-36.26666667 116.8-24.53333333 165.12-15.57333334 166.18666668 19.2 2.34666667 74.77333333-87.89333333 74.77333334-87.89333333 0 52.26666667 26.88 120.42666667 85.11999998 169.59999998-28.16 8.64-91.41333333 31.89333333-76.37333332 57.38666667 12.16 20.58666667 209.28 13.12 266.13333334 6.72000001 56.85333333 6.4 253.97333333 13.86666667 266.13333332-6.72000001 15.04-25.38666667-48.32-48.74666667-76.37333333-57.38666667 58.24-49.28 85.12-117.44 85.12-169.59999998 0 0 55.57333333 90.24 74.77333333 87.89333333 9.06666667-1.17333333 20.8-49.49333333-15.46666667-166.18666668z"  ></path></svg>
