<svg id="icon-google-fill" viewBox="0 0 1024 1024"><path d="M130.730667 320.426667A426.496 426.496 0 0 1 512 85.333333c114.986667 0 211.584 42.24 285.44 111.146667l-122.325333 122.368C630.869333 276.565333 574.634667 255.018667 512 255.018667c-111.146667 0-205.226667 75.093333-238.72 175.914666-8.533333 25.6-13.397333 52.906667-13.397333 81.066667 0 28.16 4.864 55.466667 13.397333 81.066667 33.536 100.864 127.573333 175.914667 238.72 175.914666 57.386667 0 106.24-15.146667 144.469333-40.746666a196.266667 196.266667 0 0 0 85.162667-128.768H512v-165.034667h401.834667c5.034667 27.904 7.765333 57.002667 7.765333 87.253333 0 129.962667-46.506667 239.36-127.232 313.6C723.797333 900.48 627.2 938.666667 512 938.666667A426.496 426.496 0 0 1 85.333333 512c0-68.864 16.469333-133.973333 45.397334-191.573333z"  ></path></svg>
