<svg id="icon-instagram-fill1" viewBox="0 0 1024 1024"><path d="M512 85.333333c115.925333 0 130.389333 0.426667 175.872 2.56 45.44 2.133333 76.373333 9.258667 103.594667 19.84 28.16 10.837333 51.882667 25.514667 75.605333 49.194667a209.408 209.408 0 0 1 49.194667 75.605333c10.538667 27.178667 17.706667 58.154667 19.84 103.594667 2.005333 45.482667 2.56 59.946667 2.56 175.872 0 115.925333-0.426667 130.389333-2.56 175.872-2.133333 45.44-9.301333 76.373333-19.84 103.594667a208.341333 208.341333 0 0 1-49.194667 75.605333 209.706667 209.706667 0 0 1-75.605333 49.194667c-27.178667 10.538667-58.154667 17.706667-103.594667 19.84-45.482667 2.005333-59.946667 2.56-175.872 2.56-115.925333 0-130.389333-0.426667-175.872-2.56-45.44-2.133333-76.373333-9.301333-103.594667-19.84a208.64 208.64 0 0 1-75.605333-49.194667 209.237333 209.237333 0 0 1-49.194667-75.605333c-10.581333-27.178667-17.706667-58.154667-19.84-103.594667C85.888 642.389333 85.333333 627.925333 85.333333 512c0-115.925333 0.426667-130.389333 2.56-175.872 2.133333-45.482667 9.258667-76.373333 19.84-103.594667a208.213333 208.213333 0 0 1 49.194667-75.605333A208.938667 208.938667 0 0 1 232.533333 107.733333c27.221333-10.581333 58.112-17.706667 103.594667-19.84C381.610667 85.888 396.074667 85.333333 512 85.333333z m0 213.333334a213.333333 213.333333 0 1 0 0 426.666666 213.333333 213.333333 0 0 0 0-426.666666z m277.333333-10.666667a53.333333 53.333333 0 0 0-106.666666 0 53.333333 53.333333 0 0 0 106.666666 0zM512 384a128 128 0 1 1 0 256 128 128 0 0 1 0-256z"  ></path></svg>
