<svg id="icon-kefu1" viewBox="0 0 1024 1024"><path d="M533.04 536.91c-19.18 0-34.16-15.59-34.16-34.16V387.07c0-19.18 15.59-34.16 34.16-34.16 19.18 0 34.16 15.59 34.16 34.16v115.68c0.01 18.57-15.57 34.16-34.16 34.16z"  ></path><path d="M691.87 536.91c-19.18 0-34.16-15.59-34.16-34.16V387.07c0-19.18 15.58-34.16 34.16-34.16 19.18 0 34.16 15.59 34.16 34.16v115.68c0 18.57-14.98 34.16-34.16 34.16z"  ></path><path d="M512.67 64.62c-77.32 0-150.43 19.78-213.96 54.54l-1.2 0.6c-26.97-30.57-65.92-49.15-109.68-49.15v134.85l-1.19 1.2c-74.32 79.71-119.87 186.4-119.87 303.87 0 246.33 199.58 445.91 445.91 445.91s445.91-199.58 445.91-445.91C958.58 264.2 759 64.62 512.67 64.62z m0 68.92c207.97 0 377.58 169.02 377.58 377.59 0 208.57-169.02 377.58-377.58 377.58S135.08 719.7 135.08 511.14c0-95.3 35.96-186.4 100.69-256.52l0.6-0.6c12.59-12.59 19.78-29.97 19.78-48.55V162.9c11.99 8.99 26.37 25.78 41.35 25.78 10.19 0 20.98-2.39 30.57-7.19l1.2-0.6c0.59-0.6 1.8-0.6 2.4-1.2 55.14-30.56 117.47-46.15 181-46.15"  ></path></svg>
