<svg id="icon-sever" viewBox="0 0 1024 1024"><path d="M832 64H192c-17.7 0-32 14.3-32 32v832c0 17.7 14.3 32 32 32h640c17.7 0 32-14.3 32-32V96c0-17.7-14.3-32-32-32z m-600 72h560v208H232V136z m560 480H232V408h560v208z m0 272H232V680h560v208z"  ></path><path d="M496 208H312c-4.4 0-8 3.6-8 8v48c0 4.4 3.6 8 8 8h184c4.4 0 8-3.6 8-8v-48c0-4.4-3.6-8-8-8zM312 544h184c4.4 0 8-3.6 8-8v-48c0-4.4-3.6-8-8-8H312c-4.4 0-8 3.6-8 8v48c0 4.4 3.6 8 8 8z"  ></path><path d="M680 788m-40 0a40 40 0 1 0 80 0 40 40 0 1 0-80 0Z"  ></path></svg>
