<svg id="icon-share-square" viewBox="0 0 1024 1024"><path d="M875.3325729 512.02031805H823.42501715a7.41536521 7.41536521 0 0 0-7.41536521 7.41536521v296.61460479h-608.05993999v-608.05993999h296.6146048A7.56367268 7.56367268 0 0 0 511.97968195 200.57498285V148.6674271a7.41536521 7.41536521 0 0 0-7.41536521-7.4153652H170.87288662a29.66146084 29.66146084 0 0 0-29.66146084 29.66146082v682.21359066a29.66146084 29.66146084 0 0 0 29.66146084 29.66146084h682.21359065a29.66146084 29.66146084 0 0 0 29.66146083-29.66146084V519.43568326a7.41536521 7.41536521 0 0 0-7.4153652-7.41536521z"  ></path><path d="M703.74102373 173.43474672l48.49648842 48.4964877-273.77528075 273.62697329a7.56367268 7.56367268 0 0 0 0 10.52981833l39.30143511 39.30143509a7.56367268 7.56367268 0 0 0 10.52981832 0L802.06876558 271.61418112l48.4964877 48.64479515a7.41536521 7.41536521 0 0 0 12.60612064-4.30091208L882.7479381 149.55727115a7.56367268 7.56367268 0 0 0-8.30520925-8.30520925L708.19024329 160.82862607a7.41536521 7.41536521 0 0 0-4.44921957 12.60612065z"  ></path></svg>
