
<svg id="icon-follow-rss" viewBox="0 0 100 100" version="1.1" xmlns="http://www.w3.org/2000/svg" xmlns:xlink="http://www.w3.org/1999/xlink">
    <defs>
        <path d="M100,31.1439402 C100,29.9568641 100,28.7695789 99.9930175,27.5823635 C99.9874447,26.5822548 99.9756024,25.582355 99.948435,24.582734 C99.8899204,22.4039779 99.7610491,20.2065531 99.3737384,18.0520387 C98.9808549,15.8665257 98.3392845,13.8324535 97.3278186,11.8466558 C96.3337676,9.89485205 95.0353016,8.10883916 93.4853624,6.56036689 C91.9361197,5.01198518 90.1500324,3.71417747 88.1974572,2.72061681 C86.2093553,1.70909083 84.1731879,1.06759184 81.9851613,0.674751198 C79.8305716,0.287859525 77.6320959,0.159586894 75.4538217,0.100727672 C74.4535013,0.0736647596 73.453181,0.0622572371 72.452164,0.0560679455 C71.2644578,0.0487863851 70.0767515,0.0493931238 68.8887666,0.0493931238 L55.0966755,0 L44.7811853,0 L31.2331139,0.0493931238 C30.0429695,0.0493931238 28.8528252,0.0487863851 27.6626808,0.0560679455 C26.659992,0.0622572371 25.6577908,0.0736647596 24.65552,0.100727672 C22.4716729,0.159586894 20.2686694,0.287984913 18.1088551,0.67535724 C15.9179724,1.06807249 13.8786703,1.70933464 11.8881303,2.72012919 C9.9314452,3.71380827 8.14110861,5.01174137 6.58866157,6.56036689 C5.03649317,8.10869984 3.73540797,9.89436443 2.73942048,11.8458198 C1.72534921,13.8325232 1.0823926,15.8678493 0.688464215,18.0546162 C0.300603233,20.2082249 0.172087145,22.4049532 0.112987438,24.582734 C0.0860428758,25.5824944 0.0743956917,26.5823244 0.068321323,27.5823635 C0.061041833,28.7697183 0,30.2445599 0,31.4318451 L0,44.7922162 L0,55.21809 L0.0616478766,68.8623257 C0.0616478766,70.0510737 0.0611672213,71.24017 0.068321323,72.4285697 C0.0743956917,73.4302806 0.0860428758,74.4312948 0.11310586,75.4323091 C0.172087145,77.6140605 0.300847044,79.8146201 0.689070259,81.9719905 C1.08288022,84.1607079 1.72571144,86.1975664 2.73893286,88.185663 C3.73504574,90.1403228 5.03636779,91.9284951 6.58866157,93.4791268 C8.14096929,95.0297586 9.93088792,96.3296143 11.8871551,97.3243592 C13.8788793,98.3372157 15.9191567,98.9794809 18.1113629,99.3730599 C20.2702019,99.7603696 22.4725089,99.8892406 24.65552,99.947755 C25.6577908,99.9749224 26.6601313,99.9867646 27.6627504,99.9923374 C28.8529645,100 30.0429695,100 31.2331139,100 L44.9036479,100 L55.2447034,100 L68.8887666,100 C70.0767515,100 71.2644578,100 72.452164,99.9923374 C73.453181,99.9867646 74.4535013,99.9749224 75.4538217,99.947755 C77.6334891,99.8892406 79.8319648,99.7603696 81.9879477,99.3723633 C84.1745811,98.9794809 86.2093553,98.3372157 88.1967606,97.3250558 C90.1493358,96.3296143 91.9361197,95.0304552 93.4853624,93.4791268 C95.034605,91.9291917 96.333071,90.1410194 97.3271219,88.1863596 C98.3392845,86.1975664 98.9808549,84.1593147 99.374435,81.9692041 C99.7610491,79.8132269 99.8899204,77.6133639 99.948435,75.4323091 C99.9756024,74.4312948 99.9874447,73.4302806 99.9930175,72.4285697 C100,71.24017 100,70.0510737 100,68.8623257 C100,68.8623257 100,55.4589743 100,55.21809 L100,44.7812796 C100,44.6033679 100,31.1439402 100,31.1439402 Z" id="path-c4oab9sw08-1"></path>
    </defs>
    <g id="Page-1" stroke="none" stroke-width="1" fill="none" fill-rule="evenodd">
        <g id="d">
            <mask id="mask-c4oab9sw08-2" fill="white">
                <use xlink:href="#path-c4oab9sw08-1"></use>
            </mask>
            <g id="Path"></g>
            <g id="Group" mask="url(#mask-c4oab9sw08-2)" fill="#000000" fill-rule="nonzero">
                <g transform="translate(10.1467, 13.3948)" id="Path">
                    <path d="M70.9713,-7.10542736e-15 L20.9446,-7.10542736e-15 C14.895,-7.10542736e-15 9.9907,4.8998 9.9907,10.944 C9.9907,16.9882 14.895,21.888 20.9446,21.888 L70.9713,21.888 C77.0213,21.888 81.9253,16.9882 81.9253,10.944 C81.9253,4.8998 77.0213,-7.10542736e-15 70.9713,-7.10542736e-15 Z"></path>
                    <path d="M44.2971,28.4541 L10.9539,28.4541 C4.9042,28.4541 0,33.3539 0,39.3981 C0,45.4423 4.9042,50.3421 10.9539,50.3421 L44.2971,50.3421 C50.3468,50.3421 55.2511,45.4423 55.2511,39.3981 C55.2511,33.3539 50.3468,28.4541 44.2971,28.4541 Z"></path>
                    <path d="M47.5231,67.8762 C47.5231,61.8324 42.6188,56.9326 36.5691,56.9326 C30.5195,56.9326 25.6152,61.8324 25.6152,67.8762 C25.6152,73.9212 30.5195,78.8202 36.5691,78.8202 C42.6188,78.8202 47.5231,73.9212 47.5231,67.8762 Z"></path>
                </g>
            </g>
        </g>
    </g>
</svg>
