<?xml version="1.0" encoding="UTF-8"?>
<svg width="2402px" height="1201px" viewBox="0 0 2402 1201" version="1.1" xmlns="http://www.w3.org/2000/svg" xmlns:xlink="http://www.w3.org/1999/xlink">
    <title>128x128</title>
    <g id="128x128" stroke="none" stroke-width="1" fill="none" fill-rule="evenodd">
        <g id="Group" transform="translate(1296, 97.5)" stroke="#979797" stroke-linecap="square">
            <line x1="0.5" y1="103" x2="1006.5" y2="103" id="Line"></line>
            <line x1="6" y1="303.5" x2="1012" y2="303.5" id="Line"></line>
            <line x1="6" y1="504.5" x2="1012" y2="504.5" id="Line"></line>
            <line x1="1" y1="705.5" x2="1007" y2="705.5" id="Line"></line>
            <line x1="6" y1="906.5" x2="1012" y2="906.5" id="Line"></line>
            <line x1="110.5" y1="6" x2="110.5" y2="1005" id="Line-2"></line>
            <line x1="311" y1="6.5" x2="311" y2="1005.5" id="Line-2"></line>
            <line x1="504" y1="0.5" x2="504" y2="999.5" id="Line-2"></line>
            <line x1="706" y1="4.5" x2="706" y2="1003.5" id="Line-2"></line>
            <line x1="908" y1="4.5" x2="908" y2="1003.5" id="Line-2"></line>
        </g>
        <g id="Group" transform="translate(94, 96.5)" stroke="#979797" stroke-linecap="square">
            <line x1="0.5" y1="103" x2="1006.5" y2="103" id="Line"></line>
            <line x1="6" y1="303.5" x2="1012" y2="303.5" id="Line"></line>
            <line x1="6" y1="504.5" x2="1012" y2="504.5" id="Line"></line>
            <line x1="1" y1="705.5" x2="1007" y2="705.5" id="Line"></line>
            <line x1="6" y1="906.5" x2="1012" y2="906.5" id="Line"></line>
            <line x1="110.5" y1="6" x2="110.5" y2="1005" id="Line-2"></line>
            <line x1="311" y1="6.5" x2="311" y2="1005.5" id="Line-2"></line>
            <line x1="504" y1="0.5" x2="504" y2="999.5" id="Line-2"></line>
            <line x1="706" y1="4.5" x2="706" y2="1003.5" id="Line-2"></line>
            <line x1="908" y1="4.5" x2="908" y2="1003.5" id="Line-2"></line>
        </g>
        <line x1="999.998111" y1="205.802083" x2="1001.00189" y2="804.129289" id="y" stroke="#FF0000" stroke-width="5" stroke-linecap="square"></line>
        <line x1="2203.99433" y1="200.060662" x2="2203.5" y2="1006.5" id="y" stroke="#FF0000" stroke-width="5" stroke-linecap="square"></line>
        <line x1="1403.5" y1="603.5" x2="1403.99055" y2="1005.75858" id="y" stroke="#FF0000" stroke-width="5" stroke-linecap="square"></line>
        <line x1="203.5" y1="202.465686" x2="1000.5" y2="199.5" id="x" stroke="#FF0000" stroke-width="5" stroke-linecap="square"></line>
        <line x1="1403.49622" y1="203.724265" x2="2200.49622" y2="200.758578" id="x" stroke="#FF0000" stroke-width="5" stroke-linecap="square"></line>
        <line x1="1403.49244" y1="601.982843" x2="1804.5" y2="603.5" id="x" stroke="#FF0000" stroke-width="5" stroke-linecap="square"></line>
        <line x1="1406.49244" y1="1006.98284" x2="2203.49244" y2="1004.01716" id="x" stroke="#FF0000" stroke-width="5" stroke-linecap="square"></line>
        <line x1="802.75" y1="802.25" x2="997.25" y2="801.75" id="x" stroke="#FF0000" stroke-width="5" stroke-linecap="square"></line>
        <circle id="Oval" stroke="#79A3F8" fill="#9BD0FD" cx="802" cy="804" r="19.5"></circle>
        <circle id="Oval" stroke="#79A3F8" fill="#9BD0FD" cx="1802" cy="600" r="19.5"></circle>
        <circle id="Oval" stroke="#FF8D8D" fill="#FD9B9B" cx="205" cy="200" r="19.5"></circle>
        <polygon id="Star" fill="#3FC0FD" points="204.5 412.75 188.923691 420.93895 191.898501 403.594475 179.297002 391.31105 196.711845 388.780525 204.5 373 212.288155 388.780525 229.702998 391.31105 217.101499 403.594475 220.076309 420.93895"></polygon>
        <polygon id="Star" fill="#3FC0FD" points="403.5 412.75 387.923691 420.93895 390.898501 403.594475 378.297002 391.31105 395.711845 388.780525 403.5 373 411.288155 388.780525 428.702998 391.31105 416.101499 403.594475 419.076309 420.93895"></polygon>
        <polygon id="Star" fill="#3FC0FD" points="802.5 612.75 786.923691 620.93895 789.898501 603.594475 777.297002 591.31105 794.711845 588.780525 802.5 573 810.288155 588.780525 827.702998 591.31105 815.101499 603.594475 818.076309 620.93895"></polygon>
        <polygon id="Star" fill="#3FC0FD" points="1999.5 616.75 1983.92369 624.93895 1986.8985 607.594475 1974.297 595.31105 1991.71185 592.780525 1999.5 577 2007.28815 592.780525 2024.703 595.31105 2012.1015 607.594475 2015.07631 624.93895"></polygon>
        <polygon id="Star" fill="#3FC0FD" points="1999.5 817.75 1983.92369 825.93895 1986.8985 808.594475 1974.297 796.31105 1991.71185 793.780525 1999.5 778 2007.28815 793.780525 2024.703 796.31105 2012.1015 808.594475 2015.07631 825.93895"></polygon>
        <polygon id="Star" fill="#3FC0FD" points="1800.5 814.75 1784.92369 822.93895 1787.8985 805.594475 1775.297 793.31105 1792.71185 790.780525 1800.5 775 1808.28815 790.780525 1825.703 793.31105 1813.1015 805.594475 1816.07631 822.93895"></polygon>
        <polygon id="Star" fill="#3FC0FD" points="1607.5 817.75 1591.92369 825.93895 1594.8985 808.594475 1582.297 796.31105 1599.71185 793.780525 1607.5 778 1615.28815 793.780525 1632.703 796.31105 1620.1015 808.594475 1623.07631 825.93895"></polygon>
        <polygon id="Star" fill="#3FC0FD" points="600.5 412.75 584.923691 420.93895 587.898501 403.594475 575.297002 391.31105 592.711845 388.780525 600.5 373 608.288155 388.780525 625.702998 391.31105 613.101499 403.594475 616.076309 420.93895"></polygon>
        <polygon id="Star" fill="#3FC0FD" points="799.5 412.75 783.923691 420.93895 786.898501 403.594475 774.297002 391.31105 791.711845 388.780525 799.5 373 807.288155 388.780525 824.702998 391.31105 812.101499 403.594475 815.076309 420.93895"></polygon>
        <polygon id="Star" fill="#3FC0FD" points="1603.5 412.75 1587.92369 420.93895 1590.8985 403.594475 1578.297 391.31105 1595.71185 388.780525 1603.5 373 1611.28815 388.780525 1628.703 391.31105 1616.1015 403.594475 1619.07631 420.93895"></polygon>
        <polygon id="Star" fill="#3FC0FD" points="1800.5 412.75 1784.92369 420.93895 1787.8985 403.594475 1775.297 391.31105 1792.71185 388.780525 1800.5 373 1808.28815 388.780525 1825.703 391.31105 1813.1015 403.594475 1816.07631 420.93895"></polygon>
        <polygon id="Star" fill="#3FC0FD" points="1999.5 412.75 1983.92369 420.93895 1986.8985 403.594475 1974.297 391.31105 1991.71185 388.780525 1999.5 373 2007.28815 388.780525 2024.703 391.31105 2012.1015 403.594475 2015.07631 420.93895"></polygon>
        <circle id="Oval" stroke="#FF8D8D" fill="#FD9B9B" cx="1406" cy="206" r="19.5"></circle>
    </g>
</svg>