<svg id="icon-barchart" viewBox="0 0 1024 1024"><path d="M888 792H200V168c0-4.4-3.6-8-8-8h-56c-4.4 0-8 3.6-8 8v688c0 4.4 3.6 8 8 8h752c4.4 0 8-3.6 8-8v-56c0-4.4-3.6-8-8-8z"  ></path><path d="M288 712h56c4.4 0 8-3.6 8-8V560c0-4.4-3.6-8-8-8h-56c-4.4 0-8 3.6-8 8v144c0 4.4 3.6 8 8 8zM440 712h56c4.4 0 8-3.6 8-8V384c0-4.4-3.6-8-8-8h-56c-4.4 0-8 3.6-8 8v320c0 4.4 3.6 8 8 8zM592 712h56c4.4 0 8-3.6 8-8V462c0-4.4-3.6-8-8-8h-56c-4.4 0-8 3.6-8 8v242c0 4.4 3.6 8 8 8zM744 712h56c4.4 0 8-3.6 8-8V304c0-4.4-3.6-8-8-8h-56c-4.4 0-8 3.6-8 8v400c0 4.4 3.6 8 8 8z"  ></path></svg>
