<?xml version="1.0" encoding="UTF-8"?>
<svg width="300px" height="300px" viewBox="0 0 300 300" version="1.1" xmlns="http://www.w3.org/2000/svg" xmlns:xlink="http://www.w3.org/1999/xlink">
    <title>favicon</title>
    <g id="favicon" stroke="none" stroke-width="1" fill="none" fill-rule="evenodd">
        <rect fill="#263148" x="0" y="0" width="300" height="300" />
        <g id="logo-white" transform="translate(9, 3.888)">
            <path d="M159,154.195523 C167.013592,152.617424 174.05936,152.751451 180.129673,154.674602 C190.120795,157.839913 194.348511,161.02564 199.517296,168.40144 C202.925628,173.265093 205.718707,181.861769 208,194.149433 C202.817237,195.503225 198.494331,195.463815 195.074572,193.809733 C188.963104,190.853715 183.30068,186.732689 175.022826,177.505654 C169.768056,171.648346 164.430736,163.875789 159,154.195523 Z" id="font1-dot" fill="#EEB4B4" />
            <path d="M151.486676,25.701431 C155.616373,28.5082875 160.109234,31.601356 164.965286,34.9806001 C165.393463,35.2785613 165.822641,35.5757097 166.255249,35.8738863 L167.105716,36.458366 C168.619019,37.4954138 170.108644,38.5008303 171.499238,39.4303971 L172.608374,40.1697969 C174.26724,41.2727003 175.735093,42.2354804 176.860606,42.9690389 L176.448028,45.1207071 L166.710146,84.6326462 C180.591569,66.4261557 193.885083,57.2272012 206.997372,58.6211808 C208.743695,58.806834 210.475625,59.0033727 212.18144,59.2464237 C212.733943,59.3251464 213.291751,59.4029337 213.853878,59.4813177 C215.158468,59.6632319 216.474026,59.8465926 217.787079,60.0508718 L218.661915,60.1902579 C225.09927,61.241972 231.826526,62.8614549 236.986443,68.0144332 C240.889249,71.9119921 243.813448,77.8014483 245.23642,86.708071 C247.095663,98.3453903 243.120654,117.723729 238.770002,139.330906 L238.580551,140.271866 C237.890376,143.700241 237.191343,147.180322 236.50179,150.693982 L236.044022,153.039529 C235.556986,155.549827 235.077075,158.073824 234.610494,160.607168 L234.263405,162.507565 L233.922672,164.406776 C228.900089,192.67064 226.130123,221.241925 234.44056,240.371255 C240.652266,254.669635 245.935235,262.932333 250.296038,267.670416 C253.412465,271.056463 256.180453,272.79959 258.553083,273.698031 C262.383549,275.148509 265.383302,274.528886 267.668585,273.982958 C268.14919,273.865733 268.422366,273.767797 268.665926,273.767797 C271.112421,273.767797 275.809409,272.387068 282.731388,269.370175 C283.375366,277.48654 282.878184,284.333295 281.156359,289.899262 C280.659157,291.506519 280.558961,292.472131 279.535062,293.024782 C275.748117,295.068793 270.498503,293.963559 265.488631,292.694915 C256.722323,290.485677 244.816282,287.548472 234.696635,275.178958 C233.697221,273.957347 232.737161,272.794212 231.813783,271.675534 C222.758366,260.704951 217.370091,254.220034 212.983093,237.93167 C209.908658,226.516685 208.870828,218.179476 208.826484,204.259903 L208.825284,202.840608 C208.836884,194.672214 209.157933,184.633261 209.605114,171.185381 C210.376069,148.00078 213.79261,132.71409 216.334239,121.332289 C218.054209,113.629996 219.354132,107.626433 219.354132,102.212372 C219.354132,100.105514 219.634597,97.1568247 219.926173,94.0567601 L220.027967,92.9734861 C220.416501,88.8241101 220.77388,84.5552796 220.633396,81.5249303 C220.563268,80.0122213 220.36004,78.7458615 220.056532,77.8111784 C219.39849,75.7846738 218.218924,74.7926623 217.050886,74.319003 C213.016784,72.6831053 207.083752,73.8938983 200.767445,77.2643023 C193.5468,81.1172643 185.881323,87.4227388 181.226749,92.1251087 C170.078149,103.388189 168.197052,106.181552 163.449564,130.566909 C160.514746,145.641534 157.152557,190.083423 153.408527,263.882996 C148.310625,260.529506 144.573436,256.539474 142.267189,251.849384 C137.44815,242.049164 135.781889,238.498147 133.16629,221.130117 C131.151349,207.750561 132.216961,189.426224 132.839043,178.568221 C133.052135,174.848508 133.207609,172.07036 133.207609,170.48586 C133.207609,164.09523 134.233106,147.312148 137.188741,122.72916 C137.780573,117.806695 138.265493,113.776123 138.700893,110.283341 L138.823994,109.299731 C139.331717,105.259782 139.777004,101.934213 140.256685,98.7255887 L140.372518,97.9574584 L140.582929,96.5951823 L140.761224,95.4724241 L140.885706,94.7044198 C141.871689,88.670391 143.122232,82.1576033 145.272592,71.2270532 C148.154429,56.5783156 150.225956,41.4023262 151.486676,25.701431 Z" id="font1-right" fill="#FFFFFF" />
            <path d="M78.8891291,0 L95.8005079,20.9095227 C95.225924,21.6575488 94.6661502,22.3687531 94.1213578,23.0610595 C90.498037,27.665481 87.5143717,31.5165865 85.0892155,38.8498924 C84.5933419,40.3493393 84.11666,41.7284904 83.6520528,43.0728622 C83.5490334,43.3709557 83.4494774,43.6590286 83.3486814,43.9513373 L82.9235478,45.1899741 L82.6412306,46.0224097 L82.2485912,47.2004158 C80.4111972,52.7806913 78.6427308,59.1891547 76.4859025,71.9475546 C76.3776982,72.5876213 76.2738377,73.2121994 76.1751238,73.8203757 L75.8128598,76.0522841 L78.072301,76.1393226 C78.6520627,76.1616563 79.233139,76.1970078 79.8150176,76.2458239 C87.4717734,76.8881795 94.6057156,79.8018442 100.240592,83.8134948 C106.031451,87.9361953 110.302115,93.214716 111.609957,98.4281539 C115.240663,112.901207 110.993666,140.365178 108.836316,154.571762 C108.454224,157.088603 108.185012,158.862829 107.988397,160.271632 C107.819607,161.481054 107.625793,162.940163 107.407149,164.586499 C106.781752,169.295591 105.954511,175.526376 104.92697,181.804864 L104.678362,183.301099 C104.604458,183.739061 104.529572,184.176727 104.455334,184.604273 L104.223432,185.919703 L103.986615,187.248058 C102.465647,195.80355 101.02459,204.149885 98.485251,205.777632 C97.1963754,206.603817 95.9047926,207.065865 94.5842529,207.065865 C93.8588313,207.065865 93.1344185,206.927653 92.4069507,206.668298 L95.4781875,150.606035 L95.4781875,125.416711 C95.4781875,119.629476 93.0062228,110.908957 89.011414,104.252932 C85.2823118,98.0396202 80.2711525,93.9905379 75.163077,93.8351964 C74.0775524,93.8021846 72.9925685,93.9378881 71.9187092,94.2290372 L71.4263054,96.8428337 C70.7159074,100.613041 70.0525722,104.126731 69.4322911,107.412363 C64.7908163,131.998276 62.5529774,143.865744 61.0463793,154.851795 L60.8656498,156.191994 L60.6074832,158.19028 L60.4564922,159.410154 C59.6660213,165.902037 59.0513782,172.654885 58.2694423,182.117243 L58.1071301,184.090317 C57.9422433,186.102896 57.7692971,188.236388 57.5853124,190.511952 C54.4936668,228.750117 54.5110376,253.296254 57.6025561,277.724448 C58.251829,282.854795 58.3254515,286.119184 57.7997112,287.772531 C57.3533443,287.365152 56.8839604,286.712284 56.3626176,285.917213 C52.9105561,280.652664 48.8648383,269.062761 47.655685,256.055841 C44.8625825,226.010303 44.1900887,198.199537 45.6450201,172.623459 C47.1003171,147.040956 50.0546274,122.362378 54.5097037,98.5879441 C54.6592145,97.7900827 54.8106671,96.9918965 54.9640617,96.1933855 C55.1162766,95.4010154 55.2701489,94.6096509 55.4255602,93.8194108 C54.5845527,93.7480795 53.7194585,93.7489156 52.8332622,93.823043 C51.80541,93.9090195 50.8219304,94.0875047 49.8871243,94.3559954 C40.9569857,96.920869 32.323789,109.590977 26.0163924,128.220937 C25.5897822,129.481002 25.1964216,130.603972 24.8064948,131.717231 C23.9716729,134.100687 23.1541733,136.435766 22.0577662,139.963149 C20.3672515,146.863794 19.2883814,155.11982 17.6274898,174.892165 L17.5002077,176.41617 C17.0934812,181.313351 16.6513406,186.891553 16.1571801,193.292133 C9.8071489,188.98619 5.71118886,185.065024 4.00517668,181.431253 C1.70360048,176.528943 0.414450227,167.507602 0,154.408561 C0.00301447963,88.3903589 8.23407782,59.6337727 27.7303891,30.3791899 L35.9962997,39.4225457 C36.9078334,45.6050425 36.6691333,52.0098284 36.334543,58.397272 L36.1828539,61.2074098 C35.9059422,66.2844755 35.6468393,71.3361913 35.8481016,76.2587175 L59.2444284,76.2587175 L59.8164199,73.1824272 C62.3280788,59.6740418 63.7105033,52.2383301 64.7073785,47.2643843 C65.3214048,44.2279628 65.7161407,42.4192098 66.1158122,40.7377245 L66.5998483,38.7653101 C67.0726403,36.911647 67.4709203,35.4207871 67.9619662,33.5825073 C70.1167026,25.5160341 74.7481339,10.4984271 78.8891291,0 Z" id="font1-left" fill="#FFFFFF" />
        </g>
    </g>
</svg>
